<svg width="325" height="344" viewBox="0 0 325 344" fill="none" xmlns="http://www.w3.org/2000/svg">
<g opacity="0.6">
<rect opacity="0.2" width="156.13" height="156.132" transform="matrix(4.37114e-08 1 1 -4.37114e-08 156.062 187.87)" fill="white"/>
<path opacity="0.2" d="M156.794 187.87L239.583 268.393L312.194 343.27L312.194 187.87L156.794 187.87Z" fill="white"/>
<path opacity="0.14" d="M144.231 90.5819C144.231 102.451 146.569 114.205 151.111 125.171C155.653 136.137 162.311 146.1 170.704 154.493C179.097 162.886 189.061 169.544 200.027 174.086C210.993 178.629 222.746 180.966 234.615 180.966C246.485 180.966 258.238 178.629 269.204 174.086C280.17 169.544 290.134 162.886 298.527 154.493C306.92 146.1 313.577 136.136 318.12 125.171C322.662 114.205 325 102.451 325 90.5818L234.615 90.5819L144.231 90.5819Z" fill="white"/>
<path opacity="0.07" d="M157.037 343.27L73.8585 262.368L0.905313 187.139L0.90532 343.27L157.037 343.27Z" fill="white"/>
<path opacity="0.28" d="M325 0.588991C325 12.4585 322.662 24.2117 318.12 35.1777C313.578 46.1436 306.92 56.1076 298.527 64.5005C290.134 72.8935 280.17 79.5512 269.204 84.0935C258.238 88.6357 246.485 90.9736 234.615 90.9736C222.746 90.9736 210.993 88.6357 200.027 84.0934C189.061 79.5512 179.097 72.8935 170.704 64.5005C162.311 56.1075 155.653 46.1436 151.111 35.1776C146.569 24.2117 144.231 12.4584 144.231 0.588958L234.615 0.588987L325 0.588991Z" fill="white"/>
</g>
</svg>
